<svg xmlns="http://www.w3.org/2000/svg" viewBox="0 0 1200 675" width="1200" height="675" role="img" aria-hidden="true">
  <defs>
    <linearGradient id="bg-g" x1="0" y1="0" x2="1" y2="1">
      <stop offset="0%" stop-color="#0B1017"/>
      <stop offset="55%" stop-color="#151D2A"/>
      <stop offset="100%" stop-color="#1D2735"/>
    </linearGradient>
    <radialGradient id="glow-g" cx="0.5" cy="0.5" r="0.5">
      <stop offset="0%" stop-color="#EFB468" stop-opacity="0.20"/>
      <stop offset="45%" stop-color="#EFB468" stop-opacity="0.07"/>
      <stop offset="100%" stop-color="#EFB468" stop-opacity="0"/>
    </radialGradient>
    <pattern id="grid-g" width="44" height="44" patternUnits="userSpaceOnUse">
      <path d="M44 0H0V44" fill="none" stroke="#FFFFFF" stroke-opacity="0.045" stroke-width="1"/>
    </pattern>
  </defs>
  <rect width="1200" height="675" fill="url(#bg-g)"/>
  <rect width="1200" height="675" fill="url(#grid-g)"/>
  <circle cx="744" cy="256" r="243" fill="url(#glow-g)"/>
  <line x1="139.2" y1="96.7" x2="146.0" y2="223.6" stroke="#8394AE" stroke-opacity="0.28" stroke-width="1.1"/>
  <line x1="139.2" y1="96.7" x2="273.3" y2="94.8" stroke="#8394AE" stroke-opacity="0.28" stroke-width="1.1"/>
  <line x1="146.0" y1="223.6" x2="141.9" y2="348.7" stroke="#8394AE" stroke-opacity="0.28" stroke-width="1.1"/>
  <line x1="146.0" y1="223.6" x2="278.4" y2="338.8" stroke="#8394AE" stroke-opacity="0.28" stroke-width="1.1"/>
  <line x1="141.9" y1="348.7" x2="124.5" y2="457.2" stroke="#8394AE" stroke-opacity="0.28" stroke-width="1.1"/>
  <line x1="124.5" y1="457.2" x2="138.4" y2="571.9" stroke="#8394AE" stroke-opacity="0.28" stroke-width="1.1"/>
  <line x1="138.4" y1="571.9" x2="284.9" y2="579.2" stroke="#8394AE" stroke-opacity="0.28" stroke-width="1.1"/>
  <line x1="273.3" y1="94.8" x2="447.3" y2="96.3" stroke="#8394AE" stroke-opacity="0.28" stroke-width="1.1"/>
  <line x1="278.4" y1="338.8" x2="276.7" y2="449.7" stroke="#8394AE" stroke-opacity="0.28" stroke-width="1.1"/>
  <line x1="141.9" y1="348.7" x2="278.4" y2="338.8" stroke="#8394AE" stroke-opacity="0.28" stroke-width="1.1"/>
  <line x1="276.7" y1="449.7" x2="284.9" y2="579.2" stroke="#8394AE" stroke-opacity="0.28" stroke-width="1.1"/>
  <line x1="284.9" y1="579.2" x2="429.9" y2="575.2" stroke="#8394AE" stroke-opacity="0.28" stroke-width="1.1"/>
  <line x1="447.3" y1="96.3" x2="450.2" y2="214.2" stroke="#8394AE" stroke-opacity="0.28" stroke-width="1.1"/>
  <line x1="447.3" y1="96.3" x2="602.0" y2="97.4" stroke="#8394AE" stroke-opacity="0.28" stroke-width="1.1"/>
  <line x1="450.2" y1="214.2" x2="458.6" y2="330.8" stroke="#8394AE" stroke-opacity="0.28" stroke-width="1.1"/>
  <line x1="450.2" y1="214.2" x2="606.3" y2="223.8" stroke="#8394AE" stroke-opacity="0.28" stroke-width="1.1"/>
  <line x1="458.6" y1="330.8" x2="440.5" y2="454.9" stroke="#8394AE" stroke-opacity="0.28" stroke-width="1.1"/>
  <line x1="278.4" y1="338.8" x2="458.6" y2="330.8" stroke="#8394AE" stroke-opacity="0.28" stroke-width="1.1"/>
  <line x1="440.5" y1="454.9" x2="429.9" y2="575.2" stroke="#8394AE" stroke-opacity="0.28" stroke-width="1.1"/>
  <line x1="602.0" y1="97.4" x2="606.3" y2="223.8" stroke="#8394AE" stroke-opacity="0.28" stroke-width="1.1"/>
  <line x1="606.3" y1="223.8" x2="768.6" y2="210.6" stroke="#8394AE" stroke-opacity="0.28" stroke-width="1.1"/>
  <line x1="592.2" y1="463.2" x2="586.4" y2="575.1" stroke="#8394AE" stroke-opacity="0.28" stroke-width="1.1"/>
  <line x1="440.5" y1="454.9" x2="592.2" y2="463.2" stroke="#8394AE" stroke-opacity="0.28" stroke-width="1.1"/>
  <line x1="586.4" y1="575.1" x2="742.3" y2="578.8" stroke="#8394AE" stroke-opacity="0.28" stroke-width="1.1"/>
  <line x1="429.9" y1="575.2" x2="586.4" y2="575.1" stroke="#8394AE" stroke-opacity="0.28" stroke-width="1.1"/>
  <line x1="762.4" y1="82.8" x2="768.6" y2="210.6" stroke="#8394AE" stroke-opacity="0.28" stroke-width="1.1"/>
  <line x1="762.4" y1="82.8" x2="915.4" y2="100.9" stroke="#8394AE" stroke-opacity="0.28" stroke-width="1.1"/>
  <line x1="768.6" y1="210.6" x2="744.7" y2="346.4" stroke="#8394AE" stroke-opacity="0.28" stroke-width="1.1"/>
  <line x1="744.7" y1="346.4" x2="753.5" y2="467.5" stroke="#8394AE" stroke-opacity="0.28" stroke-width="1.1"/>
  <line x1="744.7" y1="346.4" x2="900.9" y2="338.8" stroke="#8394AE" stroke-opacity="0.28" stroke-width="1.1"/>
  <line x1="753.5" y1="467.5" x2="742.3" y2="578.8" stroke="#8394AE" stroke-opacity="0.28" stroke-width="1.1"/>
  <line x1="915.4" y1="100.9" x2="925.2" y2="227.4" stroke="#8394AE" stroke-opacity="0.28" stroke-width="1.1"/>
  <line x1="925.2" y1="227.4" x2="900.9" y2="338.8" stroke="#8394AE" stroke-opacity="0.28" stroke-width="1.1"/>
  <line x1="900.9" y1="338.8" x2="918.1" y2="453.5" stroke="#8394AE" stroke-opacity="0.28" stroke-width="1.1"/>
  <line x1="918.1" y1="453.5" x2="917.2" y2="571.2" stroke="#8394AE" stroke-opacity="0.28" stroke-width="1.1"/>
  <line x1="742.3" y1="578.8" x2="917.2" y2="571.2" stroke="#8394AE" stroke-opacity="0.28" stroke-width="1.1"/>
  <line x1="1069.3" y1="84.1" x2="1056.0" y2="211.0" stroke="#8394AE" stroke-opacity="0.28" stroke-width="1.1"/>
  <line x1="915.4" y1="100.9" x2="1069.3" y2="84.1" stroke="#8394AE" stroke-opacity="0.28" stroke-width="1.1"/>
  <line x1="925.2" y1="227.4" x2="1056.0" y2="211.0" stroke="#EFB468" stroke-opacity="0.55" stroke-width="1.1"/>
  <line x1="1071.9" y1="346.0" x2="1080.9" y2="472.0" stroke="#8394AE" stroke-opacity="0.28" stroke-width="1.1"/>
  <line x1="1056.0" y1="211.0" x2="1071.9" y2="346.0" stroke="#8394AE" stroke-opacity="0.28" stroke-width="1.1"/>
  <line x1="918.1" y1="453.5" x2="1080.9" y2="472.0" stroke="#8394AE" stroke-opacity="0.28" stroke-width="1.1"/>
  <circle cx="139.2" cy="96.7" r="2.6" fill="#B4C1D4" fill-opacity="0.72"/>
  <circle cx="146.0" cy="223.6" r="2.6" fill="#B4C1D4" fill-opacity="0.72"/>
  <circle cx="141.9" cy="348.7" r="2.6" fill="#B4C1D4" fill-opacity="0.72"/>
  <circle cx="124.5" cy="457.2" r="2.6" fill="#B4C1D4" fill-opacity="0.72"/>
  <circle cx="138.4" cy="571.9" r="2.6" fill="#B4C1D4" fill-opacity="0.72"/>
  <circle cx="273.3" cy="94.8" r="2.6" fill="#B4C1D4" fill-opacity="0.72"/>
  <circle cx="278.4" cy="338.8" r="2.6" fill="#B4C1D4" fill-opacity="0.72"/>
  <circle cx="276.7" cy="449.7" r="2.6" fill="#B4C1D4" fill-opacity="0.72"/>
  <circle cx="284.9" cy="579.2" r="2.6" fill="#B4C1D4" fill-opacity="0.72"/>
  <circle cx="447.3" cy="96.3" r="2.6" fill="#B4C1D4" fill-opacity="0.72"/>
  <circle cx="450.2" cy="214.2" r="2.6" fill="#B4C1D4" fill-opacity="0.72"/>
  <circle cx="458.6" cy="330.8" r="2.6" fill="#B4C1D4" fill-opacity="0.72"/>
  <circle cx="440.5" cy="454.9" r="2.6" fill="#B4C1D4" fill-opacity="0.72"/>
  <circle cx="429.9" cy="575.2" r="2.6" fill="#B4C1D4" fill-opacity="0.72"/>
  <circle cx="602.0" cy="97.4" r="7" fill="#EFB468" fill-opacity="0.16"/><circle cx="602.0" cy="97.4" r="3.4" fill="#EFB468"/>
  <circle cx="606.3" cy="223.8" r="2.6" fill="#B4C1D4" fill-opacity="0.72"/>
  <circle cx="592.2" cy="463.2" r="2.6" fill="#B4C1D4" fill-opacity="0.72"/>
  <circle cx="586.4" cy="575.1" r="2.6" fill="#B4C1D4" fill-opacity="0.72"/>
  <circle cx="762.4" cy="82.8" r="2.6" fill="#B4C1D4" fill-opacity="0.72"/>
  <circle cx="768.6" cy="210.6" r="2.6" fill="#B4C1D4" fill-opacity="0.72"/>
  <circle cx="744.7" cy="346.4" r="2.6" fill="#B4C1D4" fill-opacity="0.72"/>
  <circle cx="753.5" cy="467.5" r="2.6" fill="#B4C1D4" fill-opacity="0.72"/>
  <circle cx="742.3" cy="578.8" r="2.6" fill="#B4C1D4" fill-opacity="0.72"/>
  <circle cx="915.4" cy="100.9" r="2.6" fill="#B4C1D4" fill-opacity="0.72"/>
  <circle cx="925.2" cy="227.4" r="7" fill="#EFB468" fill-opacity="0.16"/><circle cx="925.2" cy="227.4" r="3.4" fill="#EFB468"/>
  <circle cx="900.9" cy="338.8" r="2.6" fill="#B4C1D4" fill-opacity="0.72"/>
  <circle cx="918.1" cy="453.5" r="2.6" fill="#B4C1D4" fill-opacity="0.72"/>
  <circle cx="917.2" cy="571.2" r="2.6" fill="#B4C1D4" fill-opacity="0.72"/>
  <circle cx="1069.3" cy="84.1" r="2.6" fill="#B4C1D4" fill-opacity="0.72"/>
  <circle cx="1056.0" cy="211.0" r="7" fill="#EFB468" fill-opacity="0.16"/><circle cx="1056.0" cy="211.0" r="3.4" fill="#EFB468"/>
  <circle cx="1071.9" cy="346.0" r="2.6" fill="#B4C1D4" fill-opacity="0.72"/>
  <circle cx="1080.9" cy="472.0" r="2.6" fill="#B4C1D4" fill-opacity="0.72"/>
  <path d="M26 44V26H44" fill="none" stroke="#EFB468" stroke-opacity="0.45" stroke-width="1.5"/>
  <path d="M1174 44V26H1156" fill="none" stroke="#EFB468" stroke-opacity="0.45" stroke-width="1.5"/>
  <path d="M26 631V649H44" fill="none" stroke="#EFB468" stroke-opacity="0.45" stroke-width="1.5"/>
  <path d="M1174 631V649H1156" fill="none" stroke="#EFB468" stroke-opacity="0.45" stroke-width="1.5"/>
  <rect x="0.5" y="0.5" width="1199" height="674" fill="none" stroke="#FFFFFF" stroke-opacity="0.08"/>
</svg>
