<svg xmlns="http://www.w3.org/2000/svg" viewBox="0 0 1200 675" width="1200" height="675" role="img" aria-hidden="true">
  <defs>
    <linearGradient id="bg-g" x1="0" y1="0" x2="1" y2="1">
      <stop offset="0%" stop-color="#0B1017"/>
      <stop offset="55%" stop-color="#151D2A"/>
      <stop offset="100%" stop-color="#1D2735"/>
    </linearGradient>
    <radialGradient id="glow-g" cx="0.5" cy="0.5" r="0.5">
      <stop offset="0%" stop-color="#EFB468" stop-opacity="0.20"/>
      <stop offset="45%" stop-color="#EFB468" stop-opacity="0.07"/>
      <stop offset="100%" stop-color="#EFB468" stop-opacity="0"/>
    </radialGradient>
    <pattern id="grid-g" width="44" height="44" patternUnits="userSpaceOnUse">
      <path d="M44 0H0V44" fill="none" stroke="#FFFFFF" stroke-opacity="0.045" stroke-width="1"/>
    </pattern>
  </defs>
  <rect width="1200" height="675" fill="url(#bg-g)"/>
  <rect width="1200" height="675" fill="url(#grid-g)"/>
  <circle cx="744" cy="256" r="243" fill="url(#glow-g)"/>
  <line x1="120.6" y1="97.8" x2="124.7" y2="208.0" stroke="#8394AE" stroke-opacity="0.28" stroke-width="1.1"/>
  <line x1="120.6" y1="97.8" x2="292.3" y2="102.4" stroke="#8394AE" stroke-opacity="0.28" stroke-width="1.1"/>
  <line x1="124.7" y1="208.0" x2="136.5" y2="339.0" stroke="#8394AE" stroke-opacity="0.28" stroke-width="1.1"/>
  <line x1="124.7" y1="208.0" x2="279.7" y2="221.3" stroke="#8394AE" stroke-opacity="0.28" stroke-width="1.1"/>
  <line x1="136.5" y1="339.0" x2="126.0" y2="456.3" stroke="#8394AE" stroke-opacity="0.28" stroke-width="1.1"/>
  <line x1="126.0" y1="456.3" x2="122.4" y2="589.7" stroke="#8394AE" stroke-opacity="0.28" stroke-width="1.1"/>
  <line x1="122.4" y1="589.7" x2="285.3" y2="462.8" stroke="#8394AE" stroke-opacity="0.28" stroke-width="1.1"/>
  <line x1="136.5" y1="339.0" x2="122.4" y2="589.7" stroke="#8394AE" stroke-opacity="0.28" stroke-width="1.1"/>
  <line x1="292.3" y1="102.4" x2="279.7" y2="221.3" stroke="#8394AE" stroke-opacity="0.28" stroke-width="1.1"/>
  <line x1="292.3" y1="102.4" x2="437.9" y2="101.7" stroke="#8394AE" stroke-opacity="0.28" stroke-width="1.1"/>
  <line x1="285.3" y1="462.8" x2="437.5" y2="460.6" stroke="#8394AE" stroke-opacity="0.28" stroke-width="1.1"/>
  <line x1="126.0" y1="456.3" x2="285.3" y2="462.8" stroke="#8394AE" stroke-opacity="0.28" stroke-width="1.1"/>
  <line x1="437.9" y1="101.7" x2="443.0" y2="226.4" stroke="#8394AE" stroke-opacity="0.28" stroke-width="1.1"/>
  <line x1="279.7" y1="221.3" x2="443.0" y2="226.4" stroke="#8394AE" stroke-opacity="0.28" stroke-width="1.1"/>
  <line x1="437.5" y1="460.6" x2="441.2" y2="590.0" stroke="#8394AE" stroke-opacity="0.28" stroke-width="1.1"/>
  <line x1="441.2" y1="590.0" x2="614.4" y2="582.0" stroke="#8394AE" stroke-opacity="0.28" stroke-width="1.1"/>
  <line x1="441.2" y1="590.0" x2="599.2" y2="468.7" stroke="#8394AE" stroke-opacity="0.28" stroke-width="1.1"/>
  <line x1="437.9" y1="101.7" x2="611.1" y2="89.3" stroke="#8394AE" stroke-opacity="0.28" stroke-width="1.1"/>
  <line x1="443.0" y1="226.4" x2="611.1" y2="89.3" stroke="#8394AE" stroke-opacity="0.28" stroke-width="1.1"/>
  <line x1="611.1" y1="89.3" x2="744.4" y2="342.5" stroke="#8394AE" stroke-opacity="0.28" stroke-width="1.1"/>
  <line x1="599.2" y1="468.7" x2="614.4" y2="582.0" stroke="#8394AE" stroke-opacity="0.28" stroke-width="1.1"/>
  <line x1="437.5" y1="460.6" x2="599.2" y2="468.7" stroke="#8394AE" stroke-opacity="0.28" stroke-width="1.1"/>
  <line x1="614.4" y1="582.0" x2="760.9" y2="577.0" stroke="#8394AE" stroke-opacity="0.28" stroke-width="1.1"/>
  <line x1="599.2" y1="468.7" x2="744.4" y2="342.5" stroke="#8394AE" stroke-opacity="0.28" stroke-width="1.1"/>
  <line x1="744.4" y1="342.5" x2="912.7" y2="218.3" stroke="#8394AE" stroke-opacity="0.28" stroke-width="1.1"/>
  <line x1="760.9" y1="577.0" x2="901.6" y2="583.8" stroke="#8394AE" stroke-opacity="0.28" stroke-width="1.1"/>
  <line x1="760.9" y1="577.0" x2="919.3" y2="470.7" stroke="#8394AE" stroke-opacity="0.28" stroke-width="1.1"/>
  <line x1="921.9" y1="91.7" x2="912.7" y2="218.3" stroke="#8394AE" stroke-opacity="0.28" stroke-width="1.1"/>
  <line x1="921.9" y1="91.7" x2="1056.2" y2="214.7" stroke="#8394AE" stroke-opacity="0.28" stroke-width="1.1"/>
  <line x1="912.7" y1="218.3" x2="1056.2" y2="214.7" stroke="#8394AE" stroke-opacity="0.28" stroke-width="1.1"/>
  <line x1="912.7" y1="218.3" x2="1070.7" y2="327.9" stroke="#8394AE" stroke-opacity="0.28" stroke-width="1.1"/>
  <line x1="919.3" y1="470.7" x2="901.6" y2="583.8" stroke="#8394AE" stroke-opacity="0.28" stroke-width="1.1"/>
  <line x1="919.3" y1="470.7" x2="1069.8" y2="457.6" stroke="#8394AE" stroke-opacity="0.28" stroke-width="1.1"/>
  <line x1="901.6" y1="583.8" x2="1071.3" y2="571.4" stroke="#8394AE" stroke-opacity="0.28" stroke-width="1.1"/>
  <line x1="1056.2" y1="214.7" x2="1070.7" y2="327.9" stroke="#EFB468" stroke-opacity="0.55" stroke-width="1.1"/>
  <line x1="1070.7" y1="327.9" x2="1069.8" y2="457.6" stroke="#8394AE" stroke-opacity="0.28" stroke-width="1.1"/>
  <line x1="1069.8" y1="457.6" x2="1071.3" y2="571.4" stroke="#8394AE" stroke-opacity="0.28" stroke-width="1.1"/>
  <line x1="919.3" y1="470.7" x2="1071.3" y2="571.4" stroke="#8394AE" stroke-opacity="0.28" stroke-width="1.1"/>
  <circle cx="120.6" cy="97.8" r="2.6" fill="#B4C1D4" fill-opacity="0.72"/>
  <circle cx="124.7" cy="208.0" r="2.6" fill="#B4C1D4" fill-opacity="0.72"/>
  <circle cx="136.5" cy="339.0" r="2.6" fill="#B4C1D4" fill-opacity="0.72"/>
  <circle cx="126.0" cy="456.3" r="2.6" fill="#B4C1D4" fill-opacity="0.72"/>
  <circle cx="122.4" cy="589.7" r="2.6" fill="#B4C1D4" fill-opacity="0.72"/>
  <circle cx="292.3" cy="102.4" r="2.6" fill="#B4C1D4" fill-opacity="0.72"/>
  <circle cx="279.7" cy="221.3" r="2.6" fill="#B4C1D4" fill-opacity="0.72"/>
  <circle cx="285.3" cy="462.8" r="2.6" fill="#B4C1D4" fill-opacity="0.72"/>
  <circle cx="437.9" cy="101.7" r="7" fill="#EFB468" fill-opacity="0.16"/><circle cx="437.9" cy="101.7" r="3.4" fill="#EFB468"/>
  <circle cx="443.0" cy="226.4" r="2.6" fill="#B4C1D4" fill-opacity="0.72"/>
  <circle cx="437.5" cy="460.6" r="2.6" fill="#B4C1D4" fill-opacity="0.72"/>
  <circle cx="441.2" cy="590.0" r="2.6" fill="#B4C1D4" fill-opacity="0.72"/>
  <circle cx="611.1" cy="89.3" r="2.6" fill="#B4C1D4" fill-opacity="0.72"/>
  <circle cx="599.2" cy="468.7" r="2.6" fill="#B4C1D4" fill-opacity="0.72"/>
  <circle cx="614.4" cy="582.0" r="2.6" fill="#B4C1D4" fill-opacity="0.72"/>
  <circle cx="744.4" cy="342.5" r="2.6" fill="#B4C1D4" fill-opacity="0.72"/>
  <circle cx="760.9" cy="577.0" r="2.6" fill="#B4C1D4" fill-opacity="0.72"/>
  <circle cx="921.9" cy="91.7" r="2.6" fill="#B4C1D4" fill-opacity="0.72"/>
  <circle cx="912.7" cy="218.3" r="2.6" fill="#B4C1D4" fill-opacity="0.72"/>
  <circle cx="919.3" cy="470.7" r="2.6" fill="#B4C1D4" fill-opacity="0.72"/>
  <circle cx="901.6" cy="583.8" r="2.6" fill="#B4C1D4" fill-opacity="0.72"/>
  <circle cx="1056.2" cy="214.7" r="7" fill="#EFB468" fill-opacity="0.16"/><circle cx="1056.2" cy="214.7" r="3.4" fill="#EFB468"/>
  <circle cx="1070.7" cy="327.9" r="7" fill="#EFB468" fill-opacity="0.16"/><circle cx="1070.7" cy="327.9" r="3.4" fill="#EFB468"/>
  <circle cx="1069.8" cy="457.6" r="2.6" fill="#B4C1D4" fill-opacity="0.72"/>
  <circle cx="1071.3" cy="571.4" r="2.6" fill="#B4C1D4" fill-opacity="0.72"/>
  <path d="M26 44V26H44" fill="none" stroke="#EFB468" stroke-opacity="0.45" stroke-width="1.5"/>
  <path d="M1174 44V26H1156" fill="none" stroke="#EFB468" stroke-opacity="0.45" stroke-width="1.5"/>
  <path d="M26 631V649H44" fill="none" stroke="#EFB468" stroke-opacity="0.45" stroke-width="1.5"/>
  <path d="M1174 631V649H1156" fill="none" stroke="#EFB468" stroke-opacity="0.45" stroke-width="1.5"/>
  <rect x="0.5" y="0.5" width="1199" height="674" fill="none" stroke="#FFFFFF" stroke-opacity="0.08"/>
</svg>
