<svg xmlns="http://www.w3.org/2000/svg" viewBox="0 0 1600 600" width="1600" height="600" role="img" aria-hidden="true">
  <defs>
    <linearGradient id="bg-g" x1="0" y1="0" x2="1" y2="1">
      <stop offset="0%" stop-color="#0B1017"/>
      <stop offset="55%" stop-color="#151D2A"/>
      <stop offset="100%" stop-color="#1D2735"/>
    </linearGradient>
    <radialGradient id="glow-g" cx="0.5" cy="0.5" r="0.5">
      <stop offset="0%" stop-color="#EFB468" stop-opacity="0.20"/>
      <stop offset="45%" stop-color="#EFB468" stop-opacity="0.07"/>
      <stop offset="100%" stop-color="#EFB468" stop-opacity="0"/>
    </radialGradient>
    <pattern id="grid-g" width="44" height="44" patternUnits="userSpaceOnUse">
      <path d="M44 0H0V44" fill="none" stroke="#FFFFFF" stroke-opacity="0.045" stroke-width="1"/>
    </pattern>
  </defs>
  <rect width="1600" height="600" fill="url(#bg-g)"/>
  <rect width="1600" height="600" fill="url(#grid-g)"/>
  <circle cx="1088" cy="216" r="204" fill="url(#glow-g)"/>
  <rect x="208.0" y="132.0" width="544.0" height="156.0" rx="3" fill="#B4C1D4" fill-opacity="0.04" stroke="#8394AE" stroke-opacity="0.28" stroke-width="1.2"/>
  <line x1="218.0" y1="144.0" x2="452.8" y2="144.0" stroke="#8394AE" stroke-opacity="0.25" stroke-width="2"/>
  <rect x="848.0" y="132.0" width="544.0" height="240.0" rx="3" fill="#EFB468" fill-opacity="0.1" stroke="#EFB468" stroke-opacity="0.6" stroke-width="1.2"/>
  <line x1="858.0" y1="144.0" x2="1092.8" y2="144.0" stroke="#EFB468" stroke-opacity="0.55" stroke-width="2"/>
  <rect x="208.0" y="336.0" width="544.0" height="144.0" rx="3" fill="#B4C1D4" fill-opacity="0.04" stroke="#8394AE" stroke-opacity="0.28" stroke-width="1.2"/>
  <line x1="218.0" y1="348.0" x2="452.8" y2="348.0" stroke="#8394AE" stroke-opacity="0.25" stroke-width="2"/>
  <rect x="848.0" y="408.0" width="544.0" height="72.0" rx="3" fill="#B4C1D4" fill-opacity="0.04" stroke="#8394AE" stroke-opacity="0.28" stroke-width="1.2"/>
  <line x1="858.0" y1="420.0" x2="1092.8" y2="420.0" stroke="#8394AE" stroke-opacity="0.25" stroke-width="2"/>
  <line x1="208.0" y1="528.0" x2="1392.0" y2="528.0" stroke="#8394AE" stroke-opacity="0.3" stroke-width="1" stroke-dasharray="5 5"/><line x1="208.0" y1="523.0" x2="208.0" y2="533.0" stroke="#8394AE" stroke-opacity="0.4" stroke-width="1"/><line x1="1392.0" y1="523.0" x2="1392.0" y2="533.0" stroke="#8394AE" stroke-opacity="0.4" stroke-width="1"/>
  <path d="M26 44V26H44" fill="none" stroke="#EFB468" stroke-opacity="0.45" stroke-width="1.5"/>
  <path d="M1574 44V26H1556" fill="none" stroke="#EFB468" stroke-opacity="0.45" stroke-width="1.5"/>
  <path d="M26 556V574H44" fill="none" stroke="#EFB468" stroke-opacity="0.45" stroke-width="1.5"/>
  <path d="M1574 556V574H1556" fill="none" stroke="#EFB468" stroke-opacity="0.45" stroke-width="1.5"/>
  <rect x="0.5" y="0.5" width="1599" height="599" fill="none" stroke="#FFFFFF" stroke-opacity="0.08"/>
</svg>
